<svg width="2111" height="1491" viewBox="0 0 2111 1491" fill="none" xmlns="http://www.w3.org/2000/svg">
<path d="M2111 0H0.364746V1490.78H2111V0Z" fill="#F09330"/>
<path d="M1169.66 1144.64H1111.24V964.33H1002.97V1144.65H944.627V906.462H1169.66V1144.64Z" fill="#F4F4F5"/>
<path d="M1060.68 412.73L997.076 451.426L864.019 532.352L793.81 575.057C793.869 575.375 793.909 575.712 793.968 576.049C797.58 599.049 800.616 622.029 800.616 645.029C800.616 645.961 800.596 646.894 800.596 647.827L874.795 602.82L1060.7 490.024L1124.3 451.446L1060.68 412.73Z" fill="#F4F4F5"/>
<path d="M1246.2 525.585L1124.28 451.426L1060.68 412.73L997.076 451.426L1060.68 490.004L1235.29 595.953L1308.75 640.504C1309.13 616.79 1312.6 593.076 1316.37 569.362C1316.43 569.044 1316.47 568.707 1316.53 568.35L1246.2 525.585Z" fill="#F4F4F5"/>
<path d="M979.683 772.496C999.027 772.496 1014.71 756.815 1014.71 737.471C1014.71 718.127 999.027 702.445 979.683 702.445C960.339 702.445 944.657 718.127 944.657 737.471C944.657 756.815 960.339 772.496 979.683 772.496Z" fill="#1B734F"/>
<path d="M1134.75 772.496C1154.1 772.496 1169.78 756.815 1169.78 737.471C1169.78 718.127 1154.1 702.445 1134.75 702.445C1115.41 702.445 1099.73 718.127 1099.73 737.471C1099.73 756.815 1115.41 772.496 1134.75 772.496Z" fill="#1B734F"/>
<path d="M949.807 401.657H970.127V346.589H946.413C850.346 346.589 782.538 385.642 782.538 477.76C782.538 505.8 787.082 532.848 791.587 560.888C792.361 565.611 793.095 570.315 793.81 575.038C793.869 575.355 793.909 575.692 793.968 576.03C797.58 599.029 800.616 622.009 800.616 645.009C800.616 645.942 800.596 646.874 800.596 647.807V648.7C799.743 682.713 786.507 719.088 709.094 719.088V770.168C789.305 770.168 800.616 813.21 800.616 844.247C800.616 870.402 796.429 896.537 792.044 922.652C791.885 923.545 791.746 924.458 791.587 925.351C787.559 949.522 783.491 974.506 782.697 998.855C782.598 1001.73 782.538 1004.59 782.538 1007.47C782.538 1105.52 848.422 1142.41 937.9 1144.55C940.718 1144.63 943.556 1144.65 946.433 1144.65H970.147V1089.58H949.827C886.543 1089.58 860.527 1058.55 860.527 1002.47C860.527 997.426 860.685 992.425 860.943 987.444C861.975 968.672 864.873 950.137 868.425 930.392C872.929 906.34 876.343 881.316 876.343 854.269C877.494 790.191 845.842 756.158 794.98 745.144V743.12C845.822 731.114 877.474 699.065 876.343 634.968C876.343 624.133 875.787 613.774 874.854 603.633C874.834 603.336 874.795 603.078 874.775 602.78C873.366 587.936 871.084 573.569 868.425 558.864C866.837 550.331 865.349 541.818 864.158 533.344C864.099 533.007 864.059 532.689 864.019 532.332C861.876 517.251 860.507 502.328 860.507 487.782C860.527 433.706 883.11 401.657 949.807 401.657Z" fill="#F4F4F5"/>
<path d="M1308.71 645.029C1308.71 643.838 1308.71 642.608 1308.73 641.417C1308.73 641.119 1308.73 640.802 1308.75 640.524C1309.13 616.81 1312.6 593.096 1316.37 569.382C1316.43 569.064 1316.47 568.727 1316.53 568.37C1316.59 568.112 1316.61 567.874 1316.67 567.596C1317.01 565.373 1317.38 563.131 1317.76 560.908C1321.53 537.591 1325.28 514.948 1326.41 491.85C1326.67 487.186 1326.79 482.503 1326.79 477.78C1326.79 388.639 1263.27 349.188 1172.1 346.707C1169.07 346.648 1165.99 346.608 1162.92 346.608H1139.16V401.676H1159.5C1226.2 401.676 1248.8 433.725 1248.8 487.821C1248.8 492.981 1248.62 498.18 1248.31 503.439C1247.89 510.761 1247.14 518.183 1246.2 525.605C1246.14 525.942 1246.12 526.26 1246.06 526.617C1244.71 537.313 1242.91 548.128 1240.88 558.904C1238.66 571.366 1236.66 583.551 1235.29 595.973C1235.23 596.231 1235.21 596.529 1235.19 596.787C1233.8 609.11 1232.99 621.692 1232.99 634.987C1231.88 699.085 1263.53 731.134 1314.37 743.14V745.164C1263.53 756.177 1231.88 790.23 1232.99 854.288C1232.99 881.336 1236.38 906.36 1240.9 930.411C1245.41 955.415 1248.82 978.474 1248.82 1002.51C1248.82 1058.59 1222.83 1089.62 1159.52 1089.62H1139.16V1144.69H1162.9C1256.68 1144.69 1326.77 1108.63 1326.77 1007.49C1326.77 980.459 1322.27 952.419 1317.74 925.391C1313.2 898.363 1308.69 871.334 1308.69 844.267C1308.69 813.23 1319.98 770.188 1400.26 770.188V719.108C1319.98 719.108 1308.71 680.054 1308.71 645.029Z" fill="#F4F4F5"/>
</svg>
