<svg width="692" height="799" viewBox="0 0 692 799" fill="none" xmlns="http://www.w3.org/2000/svg">
<path d="M460.663 798.644H402.24V618.33H293.97V798.655H235.627V560.462H460.663V798.644Z" fill="#F4F4F5"/>
<path d="M351.677 66.7296L288.076 105.426L155.019 186.352L84.8096 229.057C84.8691 229.375 84.9088 229.712 84.9684 230.049C88.58 253.049 91.6162 276.029 91.6162 299.029C91.6162 299.961 91.5964 300.894 91.5964 301.827L165.795 256.82L351.697 144.024L415.299 105.446L351.677 66.7296Z" fill="#F4F4F5"/>
<path d="M537.203 179.585L415.279 105.426L351.678 66.7296L288.076 105.426L351.678 144.004L526.289 249.953L599.753 294.504C600.13 270.79 603.603 247.076 607.373 223.362C607.433 223.044 607.472 222.707 607.532 222.35L537.203 179.585Z" fill="#F4F4F5"/>
<path d="M270.683 426.496C290.027 426.496 305.708 410.815 305.708 391.471C305.708 372.127 290.027 356.445 270.683 356.445C251.339 356.445 235.657 372.127 235.657 391.471C235.657 410.815 251.339 426.496 270.683 426.496Z" fill="#1B734F"/>
<path d="M425.755 426.496C445.099 426.496 460.78 410.815 460.78 391.471C460.78 372.127 445.099 356.445 425.755 356.445C406.411 356.445 390.729 372.127 390.729 391.471C390.729 410.815 406.411 426.496 425.755 426.496Z" fill="#1B734F"/>
<path d="M240.807 55.6568H261.127V0.588501H237.413C141.346 0.588501 73.538 39.6423 73.538 131.76C73.538 159.8 78.0824 186.848 82.5871 214.888C83.361 219.611 84.0952 224.315 84.8096 229.038C84.8692 229.355 84.9089 229.692 84.9684 230.03C88.5801 253.029 91.6162 276.009 91.6162 299.009C91.6162 299.942 91.5965 300.874 91.5965 301.807V302.7C90.7431 336.713 77.5069 373.088 0.09375 373.088V424.168C80.3049 424.168 91.6162 467.21 91.6162 498.247C91.6162 524.402 87.4291 550.537 83.0435 576.652C82.8848 577.545 82.7458 578.458 82.5871 579.351C78.5586 603.522 74.4905 628.506 73.6967 652.855C73.5975 655.732 73.538 658.59 73.538 661.467C73.538 759.519 139.422 796.41 228.9 798.553C231.718 798.632 234.556 798.652 237.433 798.652H261.147V743.584H240.827C177.543 743.584 151.527 712.547 151.527 656.467C151.527 651.426 151.685 646.425 151.943 641.444C152.975 622.672 155.873 604.137 159.425 584.392C163.929 560.34 167.343 535.316 167.343 508.269C168.494 444.191 136.842 410.158 85.9804 399.144V397.12C136.822 385.114 168.474 353.065 167.343 288.968C167.343 278.133 166.787 267.774 165.854 257.633C165.834 257.336 165.795 257.078 165.775 256.78C164.366 241.936 162.084 227.569 159.425 212.864C157.837 204.331 156.349 195.818 155.158 187.344C155.099 187.007 155.059 186.689 155.019 186.332C152.876 171.251 151.507 156.328 151.507 141.782C151.527 87.7056 174.11 55.6568 240.807 55.6568Z" fill="#F4F4F5"/>
<path d="M599.713 299.029C599.713 297.838 599.713 296.608 599.733 295.417C599.733 295.119 599.733 294.802 599.752 294.524C600.13 270.81 603.602 247.096 607.373 223.382C607.432 223.064 607.472 222.727 607.532 222.37C607.591 222.112 607.611 221.874 607.67 221.596C608.008 219.373 608.385 217.131 608.762 214.908C612.532 191.591 616.283 168.948 617.414 145.85C617.672 141.186 617.791 136.503 617.791 131.78C617.791 42.6387 554.269 3.18797 463.104 0.707413C460.068 0.64788 456.992 0.608215 453.916 0.608215H430.162V55.6765H450.503C517.2 55.6765 539.803 87.7252 539.803 141.821C539.803 146.981 539.624 152.18 539.306 157.439C538.89 164.761 538.136 172.183 537.203 179.605C537.143 179.942 537.124 180.26 537.064 180.617C535.715 191.313 533.909 202.128 531.885 212.904C529.662 225.366 527.658 237.551 526.288 249.973C526.229 250.231 526.209 250.529 526.189 250.787C524.8 263.11 523.986 275.692 523.986 288.987C522.875 353.085 554.527 385.134 605.368 397.14V399.164C554.527 410.177 522.875 444.23 523.986 508.288C523.986 535.336 527.38 560.36 531.904 584.411C536.409 609.415 539.822 632.474 539.822 656.506C539.822 712.586 513.826 743.623 450.522 743.623H430.162V798.691H453.896C547.681 798.691 617.771 762.634 617.771 661.487C617.771 634.459 613.267 606.419 608.742 579.391C604.198 552.363 599.693 525.334 599.693 498.267C599.693 467.23 610.984 424.188 691.255 424.188V373.108C610.984 373.108 599.713 334.054 599.713 299.029Z" fill="#F4F4F5"/>
</svg>
