<svg width="1440" height="990" viewBox="0 0 1440 990" fill="none" xmlns="http://www.w3.org/2000/svg">
<path d="M1440 0H0V990H1440V0Z" fill="#1B734F"/>
<path d="M356.199 668.515H326.92L324.494 595.969L282.255 594.62L279.776 668.515H250.506L252.923 593.692L253.84 565.248L283.217 566.15L323.532 567.387L352.952 568.29L353.879 596.897L356.199 668.515Z" fill="#FDFFFC"/>
<path d="M305.429 350.945L277.156 367.702L218.006 402.746L186.795 421.239C186.821 421.377 186.839 421.523 186.866 421.669C188.471 431.629 189.821 441.58 189.821 451.54C189.821 451.944 189.812 452.347 189.812 452.751L222.796 433.261L305.438 384.417L333.712 367.711L305.429 350.945Z" fill="#FDFFFC"/>
<path d="M387.904 399.816L333.703 367.702L305.43 350.945L277.156 367.702L305.43 384.408L383.052 430.288L415.71 449.58C415.878 439.311 417.421 429.042 419.098 418.773C419.124 418.635 419.142 418.489 419.168 418.335L387.904 399.816Z" fill="#FDFFFC"/>
<path d="M258.86 506.727C267.46 506.727 274.431 499.936 274.431 491.559C274.431 483.182 267.46 476.392 258.86 476.392C250.261 476.392 243.29 483.182 243.29 491.559C243.29 499.936 250.261 506.727 258.86 506.727Z" fill="#FDFFFC"/>
<path d="M350.324 506.727C358.923 506.727 365.894 499.936 365.894 491.559C365.894 483.182 358.923 476.392 350.324 476.392C341.724 476.392 334.753 483.182 334.753 491.559C334.753 499.936 341.724 506.727 350.324 506.727Z" fill="#FDFFFC"/>
<path d="M256.143 346.15H265.176V322.303H254.634C211.928 322.303 181.785 339.215 181.785 379.106C181.785 391.248 183.805 402.961 185.807 415.103C186.151 417.149 186.478 419.185 186.795 421.231C186.822 421.368 186.84 421.514 186.866 421.66C188.472 431.62 189.821 441.571 189.821 451.531C189.821 451.935 189.812 452.339 189.812 452.743V453.129C189.433 467.858 183.549 483.61 149.135 483.61V505.73C184.793 505.73 189.821 524.369 189.821 537.809C189.821 549.135 187.96 560.452 186.01 571.761C185.94 572.148 185.878 572.543 185.807 572.93C184.017 583.397 182.208 594.216 181.855 604.76C181.811 606.006 181.785 607.244 181.785 608.49C181.785 650.95 211.073 666.925 250.85 667.853C252.103 667.887 253.364 667.896 254.643 667.896H265.185V644.049H256.152C228.019 644.049 216.454 630.609 216.454 606.324C216.454 604.141 216.525 601.976 216.639 599.819C217.098 591.69 218.386 583.663 219.965 575.113C221.968 564.698 223.485 553.861 223.485 542.148C223.997 514.4 209.926 499.663 187.316 494.893V494.017C209.917 488.818 223.988 474.939 223.485 447.183C223.485 442.491 223.238 438.005 222.823 433.614C222.814 433.485 222.797 433.373 222.788 433.244C222.162 426.816 221.147 420.595 219.965 414.227C219.259 410.532 218.598 406.845 218.068 403.176C218.042 403.03 218.024 402.892 218.007 402.738C217.054 396.207 216.445 389.744 216.445 383.445C216.454 360.028 226.493 346.15 256.143 346.15Z" fill="#FDFFFC"/>
<path d="M415.692 451.54C415.692 451.024 415.692 450.491 415.701 449.976C415.701 449.847 415.701 449.709 415.71 449.589C415.878 439.32 417.421 429.051 419.097 418.782C419.124 418.644 419.142 418.498 419.168 418.343C419.195 418.232 419.203 418.128 419.23 418.008C419.38 417.046 419.547 416.075 419.715 415.112C421.391 405.015 423.058 395.21 423.561 385.207C423.676 383.188 423.729 381.16 423.729 379.114C423.729 340.513 395.491 323.429 354.964 322.355C353.614 322.329 352.247 322.312 350.879 322.312H340.32V346.159H349.362C379.012 346.159 389.06 360.037 389.06 383.463C389.06 385.697 388.98 387.948 388.839 390.226C388.654 393.397 388.319 396.611 387.904 399.824C387.877 399.971 387.869 400.108 387.842 400.263C387.242 404.895 386.439 409.578 385.54 414.244C384.552 419.641 383.661 424.917 383.052 430.297C383.025 430.408 383.017 430.537 383.008 430.649C382.39 435.986 382.029 441.434 382.029 447.191C381.535 474.948 395.605 488.826 418.206 494.025V494.902C395.605 499.671 381.535 514.418 382.029 542.157C382.029 553.87 383.537 564.706 385.548 575.122C387.551 585.949 389.068 595.935 389.068 606.341C389.068 630.626 377.512 644.066 349.371 644.066H340.32V667.913H350.87C392.562 667.913 423.72 652.299 423.72 608.498C423.72 596.794 421.718 584.652 419.706 572.947C417.686 561.243 415.683 549.539 415.683 537.817C415.683 524.377 420.703 505.738 456.387 505.738V483.619C420.703 483.619 415.692 466.707 415.692 451.54Z" fill="#FDFFFC"/>
<path d="M547.719 526.844C543.246 528.949 535.386 529.997 526.908 529.997C501.625 529.997 485.746 515.578 485.746 492.152C485.746 471.124 500.699 453.112 530.296 453.112C535.695 453.112 542.32 453.86 547.719 455.664L543.864 475.489C541.244 474.441 537.547 473.685 531.84 473.685C521.509 473.685 514.108 480.594 514.267 491.258C514.267 503.272 522.744 508.978 532.616 508.978C537.397 508.978 541.252 508.376 544.799 507.027L547.719 526.844Z" fill="#FDFFFC"/>
<path d="M593.503 530.152C570.84 530.152 553.267 516.188 553.267 492.161C553.267 468.58 569.146 452.966 595.047 452.966C618.786 452.966 634.515 468.58 634.515 490.811C634.515 517.692 614.781 530.152 593.662 530.152H593.503ZM594.27 511.075C601.822 511.075 605.836 503.418 605.836 491.55C605.836 481.341 602.448 472.026 594.27 472.026C585.025 472.026 581.938 481.788 581.938 491.55C581.938 502.662 585.634 511.075 594.12 511.075H594.27Z" fill="#FDFFFC"/>
<path d="M725.308 421.729V505.223C725.308 514.383 725.617 523.544 725.926 528.502H701.102L700.025 518.594H699.717C694.785 526.852 685.531 530.161 676.904 530.161C659.331 530.161 644.687 515.294 644.687 492.169C644.528 467.24 660.716 452.975 678.597 452.975C686.925 452.975 693.709 455.381 697.097 460.185H697.405V421.738H725.308V421.729ZM697.405 486.601C697.405 485.552 697.405 484.195 697.247 483.146C696.17 477.887 692.156 473.685 686.299 473.685C677.054 473.685 672.89 481.797 672.89 491.404C672.89 502.817 678.597 508.677 686.149 508.677C691.856 508.677 696.012 504.776 696.938 499.817C697.397 498.314 697.397 496.664 697.397 494.859V486.601H697.405Z" fill="#FDFFFC"/>
<path d="M765.086 501.02C766.012 506.881 774.799 510.181 784.661 510.181C791.754 510.181 798.538 509.433 805.322 507.328L808.868 525.348C799.773 528.803 789.91 530.006 780.506 530.006C753.838 530.006 738.727 515.741 738.727 492.315C738.727 475.197 750.133 452.975 778.036 452.975C802.552 452.975 813.032 470.548 813.032 490.82C813.032 495.177 812.415 499.233 811.956 501.029H765.086V501.02ZM787.44 482.699C787.44 478.497 785.438 470.686 776.651 470.686C768.482 470.686 765.245 478.042 764.777 482.699H787.44Z" fill="#FDFFFC"/>
<path d="M847.251 454.616L855.42 485.999C856.964 491.86 858.04 497.566 858.966 503.418H859.425C860.351 497.411 861.278 492.152 862.813 485.999L870.364 454.616H899.502L871.917 528.502H844.013L817.037 454.616H847.251Z" fill="#FDFFFC"/>
<path d="M954.241 421.729H982.144V528.502H954.241V421.729Z" fill="#FDFFFC"/>
<path d="M999.258 421.729H1027.16V528.502H999.258V421.729Z" fill="#FDFFFC"/>
<path d="M1111.79 510.482C1111.79 517.838 1112.25 524.747 1113.02 528.502H1087.9L1086.51 522.049H1085.9C1080.66 527.909 1073.1 530.161 1064.93 530.161C1049.36 530.161 1039.8 519.195 1039.8 506.881C1039.8 487.056 1058.15 478.196 1083.89 478.196V477.595C1083.89 474.596 1081.58 471.287 1071.41 471.287C1063.39 471.287 1055.07 473.994 1049.98 476.692L1045.2 459.72C1049.98 457.168 1060.92 452.966 1076.65 452.966C1102.7 452.966 1111.8 467.085 1111.8 485.552V510.482H1111.79ZM1084.81 494.713C1073.4 494.713 1067.08 497.712 1067.08 504.32C1067.08 508.978 1070.17 511.376 1074.94 511.376C1078.94 511.376 1083.11 508.669 1084.49 504.621C1084.8 503.418 1084.8 502.069 1084.8 500.72V494.713H1084.81Z" fill="#FDFFFC"/>
<path d="M1203.52 517.683C1203.52 530.599 1200.9 542.913 1191.64 550.716C1183.01 557.926 1171.45 559.877 1159.73 559.877C1149.25 559.877 1138.62 557.926 1131.52 554.317L1136.76 533.89C1141.39 536.443 1150.02 539.296 1158.65 539.296C1168.51 539.296 1176.22 534.036 1176.22 522.624V519.325H1175.91C1171.29 524.884 1164.51 527.583 1156.96 527.583C1138.46 527.583 1125.05 513.163 1125.05 491.688C1125.05 468.408 1140.46 452.94 1159.43 452.94C1168.67 452.94 1175 456.395 1179 462.548H1179.31L1180.24 454.59H1204.13C1203.83 459.248 1203.52 465.556 1203.52 477.268V517.683ZM1175.76 485.097C1175.76 483.894 1175.6 482.691 1175.45 481.642C1174.22 476.237 1170.67 473.229 1165.59 473.229C1158.97 473.229 1153.26 479.537 1153.26 491.25C1153.26 500.857 1157.88 507.921 1165.59 507.921C1170.68 507.921 1174.38 504.621 1175.3 500.565C1175.76 499.061 1175.76 496.664 1175.76 495.005V485.097Z" fill="#FDFFFC"/>
<path d="M1243.29 501.02C1244.22 506.881 1253.01 510.181 1262.87 510.181C1269.96 510.181 1276.74 509.433 1283.53 507.328L1287.08 525.348C1277.98 528.803 1268.12 530.006 1258.71 530.006C1232.05 530.006 1216.93 515.741 1216.93 492.315C1216.93 475.197 1228.34 452.975 1256.24 452.975C1280.76 452.975 1291.24 470.548 1291.24 490.82C1291.24 495.177 1290.62 499.233 1290.16 501.029H1243.29V501.02ZM1265.65 482.699C1265.65 478.497 1263.64 470.686 1254.86 470.686C1246.69 470.686 1243.45 478.042 1242.98 482.699H1265.65Z" fill="#FDFFFC"/>
<path d="M923.1 446.959H923.25C931.887 446.959 937.435 441.253 937.435 434.198C937.277 426.687 931.887 421.282 923.25 421.282C914.614 421.282 909.065 426.687 909.065 434.198C909.074 441.253 914.464 446.959 923.1 446.959Z" fill="#FDFFFC"/>
<path d="M885.176 446.959H885.325C893.962 446.959 899.511 441.253 899.511 434.198C899.352 426.687 893.962 421.282 885.325 421.282C876.689 421.282 871.14 426.687 871.14 434.198C871.149 441.253 876.539 446.959 885.176 446.959Z" fill="#FDFFFC"/>
<path d="M831.063 446.959H831.213C839.85 446.959 845.398 441.253 845.398 434.198C845.24 426.687 839.85 421.282 831.213 421.282C822.577 421.282 817.028 426.687 817.028 434.198C817.037 441.253 822.435 446.959 831.063 446.959Z" fill="#FDFFFC"/>
<path d="M937.127 454.616H909.224V528.502H937.127V454.616Z" fill="#FDFFFC"/>
</svg>
