<svg width="909" height="283" viewBox="0 0 909 283" fill="none" xmlns="http://www.w3.org/2000/svg">
<path d="M164.802 283H141.505L139.567 223.705L105.957 222.603L103.984 283H80.6807L82.6045 221.844L83.3417 198.585L106.715 199.33L138.809 200.335L162.218 201.079L162.962 224.464L164.802 283Z" fill="#1B734F"/>
<path d="M124.395 23.413L101.892 37.1109L54.8215 65.7572L29.9805 80.8742C30.0015 80.9866 30.0156 81.106 30.0366 81.2254C31.3145 89.3669 32.3887 97.5014 32.3887 105.643C32.3887 105.973 32.3817 106.303 32.3817 106.633L58.634 90.7016L124.409 50.7738L146.912 37.118L124.395 23.413Z" fill="#1B734F"/>
<path d="M190.036 63.3619L146.898 37.1109L124.395 23.413L101.892 37.1109L124.395 50.7667L186.174 88.2711L212.167 104.041C212.3 95.6469 213.529 87.2525 214.863 78.8581C214.884 78.7457 214.898 78.6263 214.919 78.4999L190.036 63.3619Z" fill="#1B734F"/>
<path d="M87.3368 150.748C94.1809 150.748 99.7292 145.197 99.7292 138.349C99.7292 131.502 94.1809 125.951 87.3368 125.951C80.4926 125.951 74.9443 131.502 74.9443 138.349C74.9443 145.197 80.4926 150.748 87.3368 150.748Z" fill="#F09330"/>
<path d="M160.133 150.748C166.977 150.748 172.525 145.197 172.525 138.349C172.525 131.502 166.977 125.951 160.133 125.951C153.289 125.951 147.74 131.502 147.74 138.349C147.74 145.197 153.289 150.748 160.133 150.748Z" fill="#F09330"/>
<path d="M85.1742 19.4933H92.3639V0H83.9736C49.9769 0 25.9855 13.8244 25.9855 46.4326C25.9855 56.3583 27.5933 65.9329 29.1871 75.8586C29.461 77.5305 29.7207 79.1953 29.9735 80.8672C29.9946 80.9796 30.0086 81.099 30.0297 81.2184C31.3075 89.3599 32.3818 97.4944 32.3818 105.636C32.3818 105.966 32.3748 106.296 32.3748 106.626V106.942C32.0729 118.983 27.3827 131.866 0 131.866V149.947C28.3797 149.947 32.3818 165.183 32.3818 176.17C32.3818 185.428 30.9003 194.68 29.3486 203.924C29.2925 204.24 29.2433 204.563 29.1871 204.879C27.7618 213.435 26.3225 222.279 26.0416 230.899C26.0065 231.917 25.9855 232.929 25.9855 233.947C25.9855 268.656 49.2959 281.714 80.9545 282.473C81.9515 282.501 82.9555 282.508 83.9736 282.508H92.3639V263.015H85.1742C62.7836 263.015 53.5788 252.029 53.5788 232.177C53.5788 230.393 53.635 228.623 53.7262 226.859C54.0913 220.214 55.1164 213.653 56.3732 206.664C57.967 198.15 59.1747 189.292 59.1747 179.717C59.5819 157.035 48.3831 144.988 30.3878 141.089V140.373C48.3761 136.123 59.5749 124.778 59.1747 102.088C59.1747 98.2531 58.9781 94.5862 58.6481 90.9966C58.6411 90.8913 58.627 90.8 58.62 90.6946C58.1215 85.4402 57.3141 80.3544 56.3732 75.1492C55.8115 72.1286 55.2849 69.115 54.8637 66.1155C54.8426 65.9961 54.8286 65.8837 54.8145 65.7573C54.0562 60.4186 53.5718 55.1361 53.5718 49.987C53.5788 30.838 61.5759 19.4933 85.1742 19.4933Z" fill="#1B734F"/>
<path d="M212.153 105.636C212.153 105.214 212.153 104.779 212.16 104.357C212.16 104.252 212.16 104.14 212.167 104.041C212.3 95.6469 213.529 87.2525 214.863 78.8581C214.884 78.7457 214.898 78.6263 214.919 78.4999C214.94 78.4086 214.947 78.3243 214.968 78.2259C215.087 77.4392 215.221 76.6454 215.354 75.8586C216.688 67.6047 218.015 59.5897 218.415 51.413C218.507 49.7623 218.549 48.1044 218.549 46.4326C218.549 14.8781 196.074 0.913198 163.819 0.035123C162.744 0.0210738 161.656 0 160.568 0H152.17V19.4933H159.367C182.965 19.4933 190.963 30.838 190.963 49.987C190.963 51.8134 190.899 53.6539 190.787 55.5154C190.64 58.1075 190.373 60.7347 190.043 63.3619C190.022 63.4813 190.015 63.5937 189.994 63.7201C189.516 67.5064 188.877 71.3348 188.161 75.1492C187.375 79.5606 186.666 83.8737 186.181 88.2711C186.16 88.3624 186.153 88.4678 186.146 88.5591C185.655 92.9214 185.367 97.375 185.367 102.081C184.973 124.771 196.172 136.116 214.161 140.366V141.082C196.172 144.981 184.973 157.035 185.367 179.71C185.367 189.285 186.567 198.143 188.168 206.657C189.762 215.508 190.97 223.67 190.97 232.177C190.97 252.029 181.772 263.015 159.374 263.015H152.177V282.508H160.575C193.757 282.508 218.556 269.745 218.556 233.94C218.556 224.373 216.962 214.447 215.361 204.879C213.753 195.312 212.16 185.744 212.16 176.163C212.16 165.176 216.155 149.94 244.555 149.94V131.859C216.148 131.866 212.153 118.034 212.153 105.636Z" fill="#1B734F"/>
<path d="M317.232 167.2C313.672 168.921 307.416 169.778 300.669 169.778C280.546 169.778 267.908 157.99 267.908 138.841C267.908 121.652 279.809 106.928 303.365 106.928C307.662 106.928 312.935 107.54 317.232 109.015L314.164 125.221C312.078 124.364 309.136 123.745 304.594 123.745C296.372 123.745 290.481 129.393 290.607 138.111C290.607 147.931 297.355 152.595 305.212 152.595C309.017 152.595 312.085 152.104 314.908 151.001L317.232 167.2Z" fill="#1B734F"/>
<path d="M353.672 169.897C335.635 169.897 321.648 158.482 321.648 138.841C321.648 119.566 334.287 106.802 354.901 106.802C373.795 106.802 386.314 119.566 386.314 137.738C386.314 159.711 370.607 169.897 353.799 169.897H353.672ZM354.29 154.309C360.3 154.309 363.495 148.05 363.495 138.349C363.495 130.004 360.799 122.39 354.29 122.39C346.932 122.39 344.474 130.37 344.474 138.349C344.474 147.432 347.416 154.309 354.171 154.309H354.29Z" fill="#1B734F"/>
<path d="M458.583 81.2746V149.526C458.583 157.014 458.828 164.502 459.074 168.555H439.317L438.46 160.456H438.214C434.289 167.207 426.924 169.911 420.057 169.911C406.071 169.911 394.416 157.758 394.416 138.855C394.29 118.477 407.173 106.816 421.405 106.816C428.033 106.816 433.433 108.783 436.129 112.71H436.375V81.2746H458.583ZM436.375 134.303C436.375 133.446 436.375 132.336 436.248 131.479C435.392 127.18 432.197 123.745 427.535 123.745C420.177 123.745 416.863 130.377 416.863 138.23C416.863 147.559 421.405 152.349 427.416 152.349C431.958 152.349 435.265 149.16 436.003 145.107C436.368 143.878 436.368 142.529 436.368 141.054V134.303H436.375Z" fill="#1B734F"/>
<path d="M490.234 146.084C490.972 150.874 497.965 153.572 505.814 153.572C511.46 153.572 516.859 152.961 522.258 151.24L525.081 165.97C517.842 168.794 509.992 169.778 502.508 169.778C481.282 169.778 469.255 158.117 469.255 138.968C469.255 124.975 478.334 106.809 500.542 106.809C520.054 106.809 528.395 121.174 528.395 137.745C528.395 141.307 527.903 144.622 527.538 146.091H490.234V146.084ZM508.026 131.107C508.026 127.672 506.432 121.287 499.439 121.287C492.938 121.287 490.361 127.3 489.989 131.107H508.026Z" fill="#1B734F"/>
<path d="M555.63 108.158L562.131 133.812C563.36 138.602 564.217 143.267 564.954 148.05H565.319C566.056 143.14 566.794 138.841 568.015 133.812L574.025 108.158H597.216L575.254 168.555H553.046L531.575 108.158H555.63Z" fill="#1B734F"/>
<path d="M640.783 81.2746H662.991V168.555H640.783V81.2746Z" fill="#1B734F"/>
<path d="M676.612 81.2746H698.82V168.555H676.612V81.2746Z" fill="#1B734F"/>
<path d="M766.182 153.818C766.182 159.831 766.547 165.478 767.165 168.548H747.168L746.066 163.273H745.574C741.404 168.064 735.394 169.904 728.885 169.904C716.493 169.904 708.889 160.941 708.889 150.874C708.889 134.669 723.493 127.426 743.981 127.426V126.935C743.981 124.483 742.141 121.778 734.046 121.778C727.663 121.778 721.042 123.991 716.991 126.197L713.186 112.323C716.991 110.237 725.697 106.802 738.216 106.802C758.95 106.802 766.189 118.343 766.189 133.439V153.818H766.182ZM744.704 140.927C735.625 140.927 730.591 143.379 730.591 148.781C730.591 152.588 733.049 154.548 736.847 154.548C740.035 154.548 743.349 152.335 744.451 149.027C744.697 148.043 744.697 146.941 744.697 145.838V140.927H744.704Z" fill="#1B734F"/>
<path d="M839.181 159.711C839.181 170.269 837.096 180.336 829.731 186.714C822.857 192.607 813.659 194.202 804.335 194.202C795.994 194.202 787.526 192.607 781.881 189.657L786.052 172.96C789.731 175.046 796.605 177.378 803.471 177.378C811.321 177.378 817.458 173.079 817.458 163.75V161.053H817.212C813.533 165.598 808.133 167.804 802.123 167.804C787.4 167.804 776.728 156.016 776.728 138.462C776.728 119.432 788.994 106.788 804.089 106.788C811.447 106.788 816.482 109.612 819.669 114.641H819.915L820.652 108.137H839.673C839.427 111.944 839.181 117.1 839.181 126.675V159.711ZM817.099 133.074C817.099 132.091 816.973 131.107 816.854 130.25C815.871 125.832 813.048 123.373 809.004 123.373C803.731 123.373 799.188 128.529 799.188 138.104C799.188 145.957 802.867 151.731 809.004 151.731C813.055 151.731 815.997 149.034 816.734 145.718C817.099 144.489 817.099 142.529 817.099 141.173V133.074Z" fill="#1B734F"/>
<path d="M870.84 146.084C871.577 150.874 878.57 153.572 886.42 153.572C892.065 153.572 897.464 152.961 902.863 151.24L905.686 165.97C898.447 168.794 890.597 169.778 883.113 169.778C861.888 169.778 849.86 158.117 849.86 138.968C849.86 124.975 858.939 106.809 881.147 106.809C900.659 106.809 909 121.174 909 137.745C909 141.307 908.508 144.622 908.143 146.091H870.84V146.084ZM888.631 131.107C888.631 127.672 887.038 121.287 880.045 121.287C873.543 121.287 870.966 127.3 870.594 131.107H888.631Z" fill="#1B734F"/>
<path d="M615.998 101.892H616.117C622.991 101.892 627.408 97.2275 627.408 91.4603C627.281 85.3208 622.991 80.9023 616.117 80.9023C609.244 80.9023 604.827 85.3208 604.827 91.4603C604.834 97.2275 609.131 101.892 615.998 101.892Z" fill="#F09330"/>
<path d="M585.814 101.892H585.933C592.807 101.892 597.223 97.2275 597.223 91.4603C597.097 85.3208 592.807 80.9023 585.933 80.9023C579.06 80.9023 574.643 85.3208 574.643 91.4603C574.65 97.2275 578.947 101.892 585.814 101.892Z" fill="#F09330"/>
<path d="M542.746 101.892H542.865C549.739 101.892 554.155 97.2275 554.155 91.4603C554.029 85.3208 549.739 80.9023 542.865 80.9023C535.992 80.9023 531.575 85.3208 531.575 91.4603C531.582 97.2275 535.879 101.892 542.746 101.892Z" fill="#F09330"/>
<path d="M627.169 108.158H604.961V168.555H627.169V108.158Z" fill="#1B734F"/>
</svg>
